# xmcd
#
# Track frame offsets:
#	150
#	34232
#	62273
#	87340
#	117371
#	135004
#	162699
#	188418
#	214777
#	238636
#	255025
#	274558
#	301469
#	319019
#
# Disc length: 4496 seconds
#
# Revision: 0
# Processed by: cddbd v1.5.2PL0 Copyright (c) Steve Scherf et al.
# Submitted via: FairStars CD Ripper 1.90
#
DISCID=af118e0e
DTITLE=Various Artist - Reactivate 3: Dance Hall Classics
DYEAR=2000
DGENRE=Dance Hall
TTITLE0=Barry White - Love's Theme (Dance Version)
TTITLE1=Gregorian - Once In A Lifetime (Extended Remix)
TTITLE2=DNA feat. Szsanne Vega - Tom's Diner (Extended Remix)
TTITLE3=Simply Red - Stars (Dance Mix)
TTITLE4=Osoare - What's Going On
TTITLE5=The Real Thing - You To Me Are Everything (Extended Remix)
TTITLE6=Jon Secada - Just Another Day (Extended Remix)
TTITLE7=Mike Francis - Livin It Up (Dance Mix)
TTITLE8=Jackie Moore - Only You
TTITLE9=Dina Caroll - Walk On By
TTITLE10=Color Me Badd - I Wanna Sex You Up (Remix)
TTITLE11=Shalamar - A Night To Remeber (12" version)
TTITLE12=Belen Thomas - Survivor (12" version)
TTITLE13=Des'ree - You Gotta Be (Forever Mix)
EXTD=
EXTT0=
EXTT1=
EXTT2=
EXTT3=
EXTT4=
EXTT5=
EXTT6=
EXTT7=
EXTT8=
EXTT9=
EXTT10=
EXTT11=
EXTT12=
EXTT13=
PLAYORDER=
